<?xml version="1.0" standalone="no"?>
<svg xmlns:xlink="http://www.w3.org/1999/xlink" id="wave" style="transform: rotate(0deg); transition: all 0.3s ease 0s; user-select: auto;" viewBox="0 0 1440 310" version="1.1" xmlns="http://www.w3.org/2000/svg"><defs style="user-select: auto;"><linearGradient id="sw-gradient-0" x1="0" x2="0" y1="1" y2="0" style="user-select: auto;"><stop stop-color="rgba(23.058, 232.552, 97.719, 1)" offset="0%" style="user-select: auto;"/><stop stop-color="rgba(9.811, 202.954, 32.847, 1)" offset="100%" style="user-select: auto;"/></linearGradient></defs><path style="transform: translate(0px, 0px); opacity: 1; user-select: auto;" fill="url(#sw-gradient-0)" d="M0,31L24,62C48,93,96,155,144,180.8C192,207,240,196,288,186C336,176,384,165,432,165.3C480,165,528,176,576,175.7C624,176,672,165,720,149.8C768,134,816,114,864,98.2C912,83,960,72,1008,72.3C1056,72,1104,83,1152,118.8C1200,155,1248,217,1296,227.3C1344,238,1392,196,1440,155C1488,114,1536,72,1584,93C1632,114,1680,196,1728,201.5C1776,207,1824,134,1872,98.2C1920,62,1968,62,2016,82.7C2064,103,2112,145,2160,170.5C2208,196,2256,207,2304,196.3C2352,186,2400,155,2448,165.3C2496,176,2544,227,2592,222.2C2640,217,2688,155,2736,108.5C2784,62,2832,31,2880,56.8C2928,83,2976,165,3024,191.2C3072,217,3120,186,3168,160.2C3216,134,3264,114,3312,108.5C3360,103,3408,114,3432,118.8L3456,124L3456,310L3432,310C3408,310,3360,310,3312,310C3264,310,3216,310,3168,310C3120,310,3072,310,3024,310C2976,310,2928,310,2880,310C2832,310,2784,310,2736,310C2688,310,2640,310,2592,310C2544,310,2496,310,2448,310C2400,310,2352,310,2304,310C2256,310,2208,310,2160,310C2112,310,2064,310,2016,310C1968,310,1920,310,1872,310C1824,310,1776,310,1728,310C1680,310,1632,310,1584,310C1536,310,1488,310,1440,310C1392,310,1344,310,1296,310C1248,310,1200,310,1152,310C1104,310,1056,310,1008,310C960,310,912,310,864,310C816,310,768,310,720,310C672,310,624,310,576,310C528,310,480,310,432,310C384,310,336,310,288,310C240,310,192,310,144,310C96,310,48,310,24,310L0,310Z"/><defs style="user-select: auto;"><linearGradient id="sw-gradient-1" x1="0" x2="0" y1="1" y2="0" style="user-select: auto;"><stop stop-color="rgba(43.532, 232.552, 33.562, 1)" offset="0%" style="user-select: auto;"/><stop stop-color="rgba(120.938, 234.829, 48.474, 1)" offset="100%" style="user-select: auto;"/></linearGradient></defs><path style="transform: translate(0px, 50px); opacity: 0.9; user-select: auto;" fill="url(#sw-gradient-1)" d="M0,62L24,98.2C48,134,96,207,144,242.8C192,279,240,279,288,268.7C336,258,384,238,432,191.2C480,145,528,72,576,77.5C624,83,672,165,720,186C768,207,816,165,864,170.5C912,176,960,227,1008,211.8C1056,196,1104,114,1152,113.7C1200,114,1248,196,1296,232.5C1344,269,1392,258,1440,253.2C1488,248,1536,248,1584,227.3C1632,207,1680,165,1728,139.5C1776,114,1824,103,1872,93C1920,83,1968,72,2016,93C2064,114,2112,165,2160,191.2C2208,217,2256,217,2304,217C2352,217,2400,217,2448,217C2496,217,2544,217,2592,191.2C2640,165,2688,114,2736,87.8C2784,62,2832,62,2880,72.3C2928,83,2976,103,3024,113.7C3072,124,3120,124,3168,124C3216,124,3264,124,3312,144.7C3360,165,3408,207,3432,227.3L3456,248L3456,310L3432,310C3408,310,3360,310,3312,310C3264,310,3216,310,3168,310C3120,310,3072,310,3024,310C2976,310,2928,310,2880,310C2832,310,2784,310,2736,310C2688,310,2640,310,2592,310C2544,310,2496,310,2448,310C2400,310,2352,310,2304,310C2256,310,2208,310,2160,310C2112,310,2064,310,2016,310C1968,310,1920,310,1872,310C1824,310,1776,310,1728,310C1680,310,1632,310,1584,310C1536,310,1488,310,1440,310C1392,310,1344,310,1296,310C1248,310,1200,310,1152,310C1104,310,1056,310,1008,310C960,310,912,310,864,310C816,310,768,310,720,310C672,310,624,310,576,310C528,310,480,310,432,310C384,310,336,310,288,310C240,310,192,310,144,310C96,310,48,310,24,310L0,310Z"/></svg>